<svg width="188" height="48" viewBox="0 0 188 48" fill="none" xmlns="http://www.w3.org/2000/svg">
<path d="M2.94 46.16V8.29C2.94 7.26333 2.75333 6.54 2.38 6.12C2.00667 5.65333 1.33 5.42 0.35 5.42C0.303333 4.20667 0.63 3.25 1.33 2.55C2.03 1.85 3.15 1.5 4.69 1.5C6.23 1.5 7.32667 2.27 7.98 3.81C9.8 2.27 11.6667 1.5 13.58 1.5C18.2 1.5 20.51 3.78666 20.51 8.36V25.58C20.51 27.9133 19.6933 29.7333 18.06 31.04C16.4733 32.3467 14.3033 33 11.55 33H8.47V40.42L8.75 47C7.16333 47.2333 5.6 47.35 4.06 47.35C3.31333 47.35 2.94 46.9533 2.94 46.16ZM12.25 6.12C10.99 6.12 9.73 6.75 8.47 8.01V28.38H11.69C12.67 28.38 13.4633 28.1467 14.07 27.68C14.6767 27.1667 14.98 26.4667 14.98 25.58V8.78C14.98 7.00666 14.07 6.12 12.25 6.12ZM24.8752 46.16V8.08L24.5952 1.5C26.1818 1.26666 27.7452 1.15 29.2852 1.15C30.0318 1.15 30.4052 1.54666 30.4052 2.34V40.42L30.6852 47C29.0985 47.2333 27.5352 47.35 25.9952 47.35C25.2485 47.35 24.8752 46.9533 24.8752 46.16ZM46.8076 42.38C48.5809 42.38 50.0742 42.24 51.2876 41.96C51.5676 42.8933 51.7076 44.1067 51.7076 45.6C51.7076 46.5333 51.3342 47 50.5876 47H34.5576C34.3242 45.6933 34.2076 44.3167 34.2076 42.87C34.2076 41.4233 34.4176 39.5567 34.8376 37.27C35.2576 34.9833 36.0742 32.51 37.2876 29.85C38.5009 27.1433 39.7376 24.5067 40.9976 21.94C44.1242 15.5 45.6876 10.2267 45.6876 6.12H39.5276C37.7542 6.12 36.3076 6.26 35.1876 6.54C34.7676 5.60666 34.5576 4.39333 34.5576 2.9C34.5576 1.96666 34.9309 1.5 35.6776 1.5H51.3576C51.5442 2.71333 51.6376 4.25333 51.6376 6.12C51.6376 7.94 51.1942 10.4833 50.3076 13.75C49.4676 17.0167 48.2776 20.12 46.7376 23.06C42.4909 31.2267 40.2976 37.6667 40.1576 42.38H46.8076ZM66.7685 42.38C68.5418 42.38 70.0352 42.24 71.2485 41.96C71.5285 42.8933 71.6685 44.1067 71.6685 45.6C71.6685 46.5333 71.2952 47 70.5485 47H54.5185C54.2852 45.6933 54.1685 44.3167 54.1685 42.87C54.1685 41.4233 54.3785 39.5567 54.7985 37.27C55.2185 34.9833 56.0352 32.51 57.2485 29.85C58.4618 27.1433 59.6985 24.5067 60.9585 21.94C64.0852 15.5 65.6485 10.2267 65.6485 6.12H59.4885C57.7152 6.12 56.2685 6.26 55.1485 6.54C54.7285 5.60666 54.5185 4.39333 54.5185 2.9C54.5185 1.96666 54.8918 1.5 55.6385 1.5H71.3185C71.5052 2.71333 71.5985 4.25333 71.5985 6.12C71.5985 7.94 71.1552 10.4833 70.2685 13.75C69.4285 17.0167 68.2385 20.12 66.6985 23.06C62.4518 31.2267 60.2585 37.6667 60.1185 42.38H66.7685ZM75.4595 46.16V8.22C75.4595 5.88666 76.2528 4.06666 77.8395 2.76C79.4261 1.45333 81.5961 0.799998 84.3495 0.799998C87.1028 0.799998 89.2261 1.40667 90.7195 2.62C92.2595 3.83333 93.0295 5.60666 93.0295 7.94V41.05C93.0295 42.03 93.2161 42.73 93.5895 43.15C94.0095 43.5233 94.7095 43.71 95.6895 43.71C95.6895 46.37 94.1961 47.7 91.2095 47.7C88.7361 47.7 87.4995 46.09 87.4995 42.87V29.5H80.9895V40.42L81.2695 47C79.6828 47.2333 78.1195 47.35 76.5795 47.35C75.8328 47.35 75.4595 46.9533 75.4595 46.16ZM80.9895 8.22V24.88H87.4995V8.22C87.4995 7.33333 87.1961 6.65667 86.5895 6.19C85.9828 5.67666 85.1895 5.42 84.2095 5.42C83.2295 5.42 82.4361 5.67666 81.8295 6.19C81.2695 6.65667 80.9895 7.33333 80.9895 8.22ZM98.7798 46.16V8.29C98.7798 7.26333 98.5932 6.54 98.2198 6.12C97.8465 5.65333 97.1698 5.42 96.1898 5.42C96.1432 4.20667 96.4698 3.25 97.1698 2.55C97.8698 1.85 98.9898 1.5 100.53 1.5C102.07 1.5 103.167 2.27 103.82 3.81C105.64 2.27 107.507 1.5 109.42 1.5C114.04 1.5 116.35 3.78666 116.35 8.36V25.58C116.35 27.9133 115.533 29.7333 113.9 31.04C112.313 32.3467 110.143 33 107.39 33H104.31V40.42L104.59 47C103.003 47.2333 101.44 47.35 99.8998 47.35C99.1532 47.35 98.7798 46.9533 98.7798 46.16ZM108.09 6.12C106.83 6.12 105.57 6.75 104.31 8.01V28.38H107.53C108.51 28.38 109.303 28.1467 109.91 27.68C110.517 27.1667 110.82 26.4667 110.82 25.58V8.78C110.82 7.00666 109.91 6.12 108.09 6.12ZM120.715 46.16V8.08L120.435 1.5C122.022 1.26666 123.585 1.15 125.125 1.15C125.872 1.15 126.245 1.54666 126.245 2.34V40.42L126.525 47C124.938 47.2333 123.375 47.35 121.835 47.35C121.088 47.35 120.715 46.9533 120.715 46.16ZM141.877 42.38C143.557 42.38 144.817 42.2633 145.657 42.03C146.031 43.3367 146.217 44.62 146.217 45.88C146.217 46.6267 145.891 47 145.237 47H131.447V8.08L131.167 1.5C132.754 1.26666 134.317 1.15 135.857 1.15C136.604 1.15 136.977 1.54666 136.977 2.34V42.38H141.877ZM148.804 40.56V8.22C148.804 5.88666 149.597 4.06666 151.184 2.76C152.771 1.45333 154.941 0.799998 157.694 0.799998C160.447 0.799998 162.571 1.40667 164.064 2.62C165.604 3.83333 166.374 5.60666 166.374 7.94V40.28C166.374 42.6133 165.557 44.4333 163.924 45.74C162.337 47.0467 160.167 47.7 157.414 47.7C154.661 47.7 152.537 47.0933 151.044 45.88C149.551 44.6667 148.804 42.8933 148.804 40.56ZM154.334 8.22V40.28C154.334 41.12 154.614 41.7967 155.174 42.31C155.781 42.8233 156.574 43.08 157.554 43.08C158.534 43.08 159.327 42.8467 159.934 42.38C160.541 41.8667 160.844 41.1667 160.844 40.28V8.22C160.844 7.33333 160.541 6.65667 159.934 6.19C159.327 5.67666 158.534 5.42 157.554 5.42C156.574 5.42 155.781 5.67666 155.174 6.19C154.614 6.65667 154.334 7.33333 154.334 8.22ZM182.999 1.5C184.679 1.5 185.939 1.38333 186.779 1.15C187.152 2.45666 187.339 3.74 187.339 5C187.339 5.74666 187.012 6.12 186.359 6.12H180.899V40.42L181.179 47C179.592 47.2333 178.029 47.35 176.489 47.35C175.742 47.35 175.369 46.9533 175.369 46.16V6.12H173.269C171.589 6.12 170.329 6.23666 169.489 6.47C169.116 5.16333 168.929 3.88 168.929 2.62C168.929 1.87333 169.256 1.5 169.909 1.5H182.999Z" fill="#EC8131"/>
</svg>
